name analog
datacolumns 19
datarows 42
range 0.195 0.2155
endheader
time	ground_force_vx	ground_force_vy	ground_force_vz	ground_force_px	ground_force_py	ground_force_pz	l_ground_force_vx	l_ground_force_vy	l_ground_force_vz	l_ground_force_px	l_ground_force_py	l_ground_force_pz	ground_torque_x	ground_torque_y	ground_torque_z	l_ground_torque_x	l_ground_torque_y	l_ground_torque_z
0.195	-0.0	-0.0	-0.0	9.295061111450195	57.62796401977539	-393.2183227539063	9.590229034423828	-41.2368049621582	-310.6974792480469	-0.0	-0.0	-0.0	-0.0	-0.0	-0.0	63542.05859375	-35232.7890625	3081.406494140625
0.1955	-0.0	-0.0	-0.0	8.766791343688965	56.07880783081055	-384.2266845703125	9.957282066345217	-42.90276336669922	-305.2904357910156	-0.0	-0.0	-0.0	-0.0	-0.0	-0.0	62673.88671875	-34718.59375	3296.140380859375
0.196	-0.0	-0.0	-0.0	7.6721038818359375	55.16348648071289	-373.7603759765625	10.779205322265623	-43.3992805480957	-299.9145812988281	-0.0	-0.0	-0.0	-0.0	-0.0	-0.0	61441.84375	-34201.4765625	3378.34326171875
0.1965	-0.0	-0.0	-0.0	5.847372055053711	54.47491836547852	-365.1239929199219	11.53111743927002	-43.60915756225586	-294.4664001464844	-0.0	-0.0	-0.0	-0.0	-0.0	-0.0	60187.78125	-33398.4296875	3530.584228515625
0.197	-0.0	-0.0	-0.0	4.27423620223999	54.91218948364258	-358.2560729980469	12.1420259475708	-42.49403381347656	-289.7511901855469	-0.0	-0.0	-0.0	-0.0	-0.0	-0.0	59165.26171875	-33053.06640625	3501.994384765625
0.1975	-0.0	-0.0	-0.0	4.014472961425781	54.68603897094727	-350.3851928710937	12.275402069091797	-41.19107437133789	-283.2488708496094	-0.0	-0.0	-0.0	-0.0	-0.0	-0.0	57991.20703125	-32334.79296875	3531.917236328125
0.198	-0.0	-0.0	-0.0	4.297157287597656	54.864593505859375	-341.1420288085937	12.386268615722656	-39.60121154785156	-277.6630249023437	-0.0	-0.0	-0.0	-0.0	-0.0	-0.0	56727.56640625	-31675.646484375	3487.991455078125
0.1985	-0.0	-0.0	-0.0	5.367381572723389	54.03782653808594	-333.8533020019531	12.541411399841309	-36.95151138305664	-270.89892578125	-0.0	-0.0	-0.0	-0.0	-0.0	-0.0	55355.03515625	-30876.2734375	3303.3408203125
0.199	-0.0	-0.0	-0.0	6.904505252838135	53.63887023925781	-324.0344543457031	12.463400840759276	-35.383995056152344	-265.70440673828125	-0.0	-0.0	-0.0	-0.0	-0.0	-0.0	54539.1953125	-30322.00390625	3114.6005859375
0.1995	-0.0	-0.0	-0.0	9.25987720489502	53.23587417602539	-315.869873046875	12.175933837890623	-34.06074905395508	-263.396484375	-0.0	-0.0	-0.0	-0.0	-0.0	-0.0	53671.5390625	-29945.171875	2744.18505859375
0.2	-0.0	-0.0	-0.0	10.85855197906494	52.21221160888672	-309.6841125488281	11.699424743652344	-33.408138275146484	-260.7753295898437	-0.0	-0.0	-0.0	-0.0	-0.0	-0.0	53145.546875	-29863.76171875	2650.981689453125
0.2005	-0.0	-0.0	-0.0	12.667892456054688	52.36996841430664	-306.98651123046875	10.756743431091309	-33.83964538574219	-258.940673828125	-0.0	-0.0	-0.0	-0.0	-0.0	-0.0	52971.4921875	-29552.443359375	2457.74365234375
0.201	-0.0	-0.0	-0.0	13.59844970703125	52.52969741821289	-307.4933776855469	10.313336372375488	-34.75599670410156	-257.67388916015625	-0.0	-0.0	-0.0	-0.0	-0.0	-0.0	53096.95703125	-29482.474609375	2368.27685546875
0.2015	-0.0	-0.0	-0.0	13.62374782562256	53.95574188232422	-309.1586608886719	9.758186340332031	-36.1334342956543	-258.6309509277344	-0.0	-0.0	-0.0	-0.0	-0.0	-0.0	52782.94140625	-29323.298828125	2337.908203125
0.202	-0.0	-0.0	-0.0	12.75090789794922	55.86619567871094	-312.1342163085937	9.954983711242676	-37.369720458984375	-259.12335205078125	-0.0	-0.0	-0.0	-0.0	-0.0	-0.0	52423.71484375	-29094.56640625	2597.0556640625
0.2025	-0.0	-0.0	-0.0	11.80754852294922	56.83953475952149	-316.7007141113281	10.678053855895996	-38.65776824951172	-257.06689453125	-0.0	-0.0	-0.0	-0.0	-0.0	-0.0	52420.33203125	-29061.326171875	2772.041259765625
0.203	-0.0	-0.0	-0.0	10.857892036437988	57.51487731933594	-320.6639709472656	12.251503944396973	-39.98653411865234	-259.36505126953125	-0.0	-0.0	-0.0	-0.0	-0.0	-0.0	52558.25390625	-29163.365234375	3050.804443359375
0.20350000000000001	-0.0	-0.0	-0.0	10.221871376037598	57.152809143066406	-322.18023681640625	14.123407363891602	-40.990421295166016	-263.4810485839844	-0.0	-0.0	-0.0	-0.0	-0.0	-0.0	53162.00390625	-29533.38671875	3548.40478515625
0.20400000000000001	-0.0	-0.0	-0.0	10.32240104675293	55.55423355102539	-316.4933776855469	16.415197372436523	-42.97486114501953	-268.6258850097656	-0.0	-0.0	-0.0	-0.0	-0.0	-0.0	54126.76953125	-29845.884765625	4175.5234375
0.20450000000000002	-0.0	-0.0	-0.0	10.537691116333008	53.98693084716797	-314.20526123046875	19.29170799255371	-44.89093780517578	-276.912353515625	-0.0	-0.0	-0.0	-0.0	-0.0	-0.0	55085.8984375	-30159.572265625	4762.4306640625
0.20500000000000002	-0.0	-0.0	-0.0	11.345592498779297	52.96970748901367	-310.2999572753906	20.95315170288086	-46.63385009765625	-286.8748474121094	-0.0	-0.0	-0.0	-0.0	-0.0	-0.0	56491.74609375	-30768.9453125	5267.3603515625
0.20550000000000002	-0.0	-0.0	-0.0	11.565936088562012	52.36110305786133	-309.6344909667969	21.99169540405273	-47.82286071777344	-294.4962158203125	-0.0	-0.0	-0.0	-0.0	-0.0	-0.0	58259.98828125	-31227.421875	5661.349609375
0.20600000000000002	-0.0	-0.0	-0.0	12.436477661132812	52.49781036376953	-308.9083251953125	22.32276153564453	-48.19975280761719	-303.572998046875	-0.0	-0.0	-0.0	-0.0	-0.0	-0.0	59673.75	-31778.279296875	5844.6533203125
0.20650000000000002	-0.0	-0.0	-0.0	12.819714546203612	52.50251007080078	-311.1329040527344	22.976093292236328	-48.22364044189453	-311.03155517578125	-0.0	-0.0	-0.0	-0.0	-0.0	-0.0	60892.8046875	-31856.44140625	6098.767578125
0.20700000000000002	-0.0	-0.0	-0.0	12.694572448730469	53.17503356933594	-309.86260986328125	23.847108840942383	-49.436073303222656	-320.9973449707031	-0.0	-0.0	-0.0	-0.0	-0.0	-0.0	62143.30078125	-32419.048828125	6360.5927734375
0.20750000000000002	-0.0	-0.0	-0.0	12.221839904785156	53.2557373046875	-307.74322509765625	23.838876724243164	-50.68026351928711	-326.9945678710937	-0.0	-0.0	-0.0	-0.0	-0.0	-0.0	63440.65625	-32449.828125	6379.21923828125
0.20800000000000002	-0.0	-0.0	-0.0	10.883682250976562	52.2388916015625	-308.2363586425781	23.5006103515625	-52.20582962036133	-333.0601806640625	-0.0	-0.0	-0.0	-0.0	-0.0	-0.0	64051.6953125	-32361.65234375	6305.57177734375
0.2085	-0.0	-0.0	-0.0	9.363014221191406	52.29664611816406	-306.7740478515625	23.363039016723636	-53.15281677246094	-335.63116455078125	-0.0	-0.0	-0.0	-0.0	-0.0	-0.0	64363.14453125	-31860.26171875	6305.16552734375
0.209	-0.0	-0.0	-0.0	8.083260536193848	52.05602264404297	-305.608154296875	23.525634765625	-53.731475830078125	-336.93133544921875	-0.0	-0.0	-0.0	-0.0	-0.0	-0.0	64023.52734375	-31497.02734375	6319.05810546875
0.2095	-0.0	-0.0	-0.0	6.954673767089844	51.69563293457031	-305.7311706542969	23.508358001708984	-54.1165657043457	-338.67706298828125	-0.0	-0.0	-0.0	-0.0	-0.0	-0.0	64280.74609375	-31095.142578125	6262.0859375
0.21	-0.0	-0.0	-0.0	5.263420104980469	52.89225769042969	-310.10595703125	24.06550407409668	-54.87954330444336	-343.46728515625	-0.0	-0.0	-0.0	-0.0	-0.0	-0.0	65070.9375	-30846.6953125	6200.6083984375
0.2105	-0.0	-0.0	-0.0	3.4690909385681152	53.89643096923828	-316.44921875	24.452312469482425	-56.3560905456543	-350.6023864746094	-0.0	-0.0	-0.0	-0.0	-0.0	-0.0	65997.28125	-30907.107421875	6342.82666015625
0.211	-0.0	-0.0	-0.0	1.5749690532684326	56.33366394042969	-326.8263244628906	24.345338821411133	-58.20399475097656	-359.0797424316406	-0.0	-0.0	-0.0	-0.0	-0.0	-0.0	67166.7421875	-30901.92578125	6132.34521484375
0.2115	-0.0	-0.0	-0.0	-0.2983781993389129	58.40508270263672	-338.1029357910156	23.57185935974121	-60.62028884887695	-367.5831909179688	-0.0	-0.0	-0.0	-0.0	-0.0	-0.0	68395.0546875	-30818.380859375	6129.0185546875
0.212	-0.0	-0.0	-0.0	-1.6394031047821045	59.962799072265625	-347.55206298828125	22.18411636352539	-62.241607666015625	-375.81195068359375	-0.0	-0.0	-0.0	-0.0	-0.0	-0.0	69650.8515625	-30934.228515625	5773.8525390625
0.2125	-0.0	-0.0	-0.0	-3.0080127716064453	61.41085052490234	-361.10400390625	20.43514060974121	-63.79977798461914	-381.8719482421875	-0.0	-0.0	-0.0	-0.0	-0.0	-0.0	70457.875	-30555.82421875	5384.5009765625
0.213	-0.0	-0.0	-0.0	-4.017007827758789	62.17740249633789	-372.0496520996094	18.78719711303711	-63.74885177612305	-387.5582885742188	-0.0	-0.0	-0.0	-0.0	-0.0	-0.0	71355.2265625	-30129.841796875	4828.3623046875
0.2135	-0.0	-0.0	-0.0	-5.089823722839356	62.60005569458008	-382.019775390625	18.01421546936035	-63.53470230102539	-394.3396606445313	-0.0	-0.0	-0.0	-0.0	-0.0	-0.0	72276.921875	-29913.41015625	4344.7568359375
0.214	-0.0	-0.0	-0.0	-5.972720146179199	63.46303939819336	-390.0226135253906	18.002582550048828	-63.845211029052734	-400.8260498046875	-0.0	-0.0	-0.0	-0.0	-0.0	-0.0	73293.15625	-29634.556640625	4117.97998046875
0.2145	-0.0	-0.0	-0.0	-6.810416221618652	64.58507537841797	-396.3802490234375	18.33170890808105	-64.01300811767578	-407.0746154785156	-0.0	-0.0	-0.0	-0.0	-0.0	-0.0	73896.7421875	-29731.1796875	3854.9619140625
0.215	-0.0	-0.0	-0.0	-7.880900859832764	65.65875244140625	-406.5177001953125	18.984107971191406	-64.91644287109375	-415.119873046875	-0.0	-0.0	-0.0	-0.0	-0.0	-0.0	74825.875	-29402.251953125	4043.633544921875
0.2155	-0.0	-0.0	-0.0	-9.21728801727295	67.29175567626953	-415.6860656738281	19.845123291015625	-66.57376098632812	-421.8161926269531	-0.0	-0.0	-0.0	-0.0	-0.0	-0.0	76188.4765625	-29548.083984375	3874.468017578125
